<svg id="Lag_1" data-name="Lag 1" xmlns="http://www.w3.org/2000/svg" viewBox="0 0 147.27 169.43"><defs><style>.cls-1{fill:#fff;}</style></defs><title>huset_alma</title><path class="cls-1" d="M44.41,40.57a.93.93,0,0,1-.93-.94V10.86H37.55v27a.93.93,0,0,1-.93.93H18a.93.93,0,0,1-.93-.93v-27H11.17V39.63a.93.93,0,1,1-1.86,0V9.92A.93.93,0,0,1,10.24,9H18a.94.94,0,0,1,.94.93v27H35.68v-27A.94.94,0,0,1,36.62,9h7.79a.93.93,0,0,1,.93.93V39.63a.93.93,0,0,1-.93.94Z"/><path class="cls-1" d="M44.41,75.65H36.62a.93.93,0,0,1-.94-.93V46.6H19V74.72a.93.93,0,0,1-.94.93H10.24a.92.92,0,0,1-.93-.93V43.54a.93.93,0,0,1,1.86,0V73.78H17.1V45.67a.94.94,0,0,1,.93-.94H36.62a.94.94,0,0,1,.93.94V73.78h5.93V43.54a.93.93,0,1,1,1.86,0V74.72a.92.92,0,0,1-.93.93Z"/><path class="cls-1" d="M72.62,76.17a18.16,18.16,0,0,1-12.26-4.52c-3.65-3.3-5.57-8-5.57-13.66V28.7a.93.93,0,0,1,1.86,0V58c0,5.09,1.72,9.33,5,12.27a16.28,16.28,0,0,0,11,4,16.8,16.8,0,0,0,11.24-4.1A15.82,15.82,0,0,0,89,58V28.7a.93.93,0,0,1,1.86,0V58c0,11.94-9.15,18.18-18.2,18.18Z"/><path class="cls-1" d="M70.89,68.47h-.18c-4.94-1-8.13-5.09-8.13-10.47V11.11H56.65V24.82a.93.93,0,0,1-1.86,0V10.17a.93.93,0,0,1,.93-.93h7.79a.94.94,0,0,1,.94.93V58c0,5.4,3.42,8,6.62,8.63a.93.93,0,0,1-.18,1.85Z"/><path class="cls-1" d="M74.72,68.48a.94.94,0,0,1-.92-.76,1,1,0,0,1,.74-1.1c3.2-.62,6.62-3.22,6.62-8.63V10.17a.94.94,0,0,1,.94-.93h7.79a.93.93,0,0,1,.93.93V24.82a.93.93,0,0,1-1.86,0V11.11H83V58c0,5.39-3.19,9.5-8.13,10.47l-.18,0Z"/><path class="cls-1" d="M117.55,46.94a.87.87,0,0,1-.46-.13c-15.27-8.62-16.91-13.55-17.47-19.09v0a17.94,17.94,0,0,1,4.92-13.4A18.69,18.69,0,0,1,136.69,27.2a.93.93,0,0,1-.94.93h-8.23a.93.93,0,0,1-.93-.9c-.17-5.06-3.56-8.45-8.43-8.45a8.83,8.83,0,0,0-6.5,2.64,7.39,7.39,0,0,0-1.92,5.71c.19,3.78,3.27,5.95,8.31,9.07a.93.93,0,0,1,.31,1.28.94.94,0,0,1-1.29.31c-5.4-3.34-9-5.88-9.2-10.54a9.36,9.36,0,0,1,2.42-7.1,10.72,10.72,0,0,1,7.87-3.24,10,10,0,0,1,10.23,9.36h6.4a16.82,16.82,0,0,0-28.91-10.71,16,16,0,0,0-4.4,12c.5,5,2.06,9.46,16.53,17.64a.92.92,0,0,1,.35,1.27.93.93,0,0,1-.81.48Z"/><path class="cls-1" d="M119.19,76.67a19,19,0,0,1-18.84-19.15.94.94,0,0,1,.94-.94h8.38a.94.94,0,0,1,.93.91,8.64,8.64,0,0,0,8.59,8.71,9,9,0,0,0,6.59-2.69,7.64,7.64,0,0,0,2-5.92c-.19-3.82-2.94-5.86-7.44-8.78a.93.93,0,1,1,1-1.57c4.86,3.15,8.06,5.56,8.29,10.23a9.56,9.56,0,0,1-2.49,7.32,10.81,10.81,0,0,1-8,3.28,10.42,10.42,0,0,1-10.4-9.62h-6.54A17.12,17.12,0,0,0,119.19,74.8a16.91,16.91,0,0,0,12.44-5.22,16.61,16.61,0,0,0,4.55-12.42c-.5-5-2.05-9.76-15.79-17.46a.93.93,0,0,1,.91-1.63C134.46,45.44,137.41,50.59,138,57v0a18.59,18.59,0,0,1-18.86,19.64Z"/><path class="cls-1" d="M71.41,119V84.88a.94.94,0,0,1,.93-.94h30.9a.94.94,0,1,1,0,1.87h-30v32.3H79.2V92.67a.94.94,0,0,1,.94-.94H101.4a.94.94,0,0,1,.93.94v13h.91a.94.94,0,1,1,0,1.87H101.4a.94.94,0,0,1-.94-.94V93.6H81.07V119a.94.94,0,0,1-.93.94h-7.8a.94.94,0,0,1-.93-.94Z"/><path class="cls-1" d="M106.22,106.65a.94.94,0,0,1,.94-.93h1.09v-13a.94.94,0,0,1,.94-.94h20.16a.94.94,0,0,1,.93.94v25.44h5.92V85.81h-29a.94.94,0,1,1,0-1.87h30a.93.93,0,0,1,.93.94V119a.93.93,0,0,1-.93.94h-7.79a.94.94,0,0,1-.94-.94V93.6H110.12v13.05a.94.94,0,0,1-.93.94h-2a.94.94,0,0,1-.94-.94Z"/><path class="cls-1" d="M71.41,139.85v-2.06a.93.93,0,0,1,.93-.93h56.07V124.7a.94.94,0,0,1,.94-.94h7.79a.93.93,0,0,1,.93.94v15.15a.94.94,0,0,1-1.87,0V125.63h-5.92v12.16a.93.93,0,0,1-.93.93H73.28v1.13a.94.94,0,0,1-1.87,0Z"/><path class="cls-1" d="M71.41,145.77v-2a.94.94,0,1,1,1.87,0v1.05h56.07a.93.93,0,0,1,.93.93v12.16h5.92V143.79a.94.94,0,1,1,1.87,0v15.08a.93.93,0,0,1-.93.93h-7.79a.94.94,0,0,1-.94-.93V146.71H72.34a.94.94,0,0,1-.93-.94Z"/></svg>
